<mxfile host="app.diagrams.net" modified="2021-05-30T10:09:59.775Z" agent="5.0 (Windows)" etag="QJB3ZPw1Wt76tZ2VRmNF" version="14.7.3" type="github">
  <diagram id="ZHgSItBd1fzoSWU3NaHl" name="Page-1">
    <mxGraphModel dx="2249" dy="763" grid="1" gridSize="10" guides="1" tooltips="1" connect="1" arrows="1" fold="1" page="1" pageScale="1" pageWidth="827" pageHeight="1169" math="0" shadow="0">
      <root>
        <mxCell id="0" />
        <mxCell id="1" parent="0" />
        <mxCell id="mTBoAgmL4iOCy40pofWy-2" value="Speaker" style="shape=step;perimeter=stepPerimeter;whiteSpace=wrap;html=1;fixedSize=1;" vertex="1" parent="1">
          <mxGeometry x="-70" y="320" width="120" height="80" as="geometry" />
        </mxCell>
        <mxCell id="mTBoAgmL4iOCy40pofWy-9" value="" style="edgeStyle=orthogonalEdgeStyle;rounded=0;orthogonalLoop=1;jettySize=auto;html=1;" edge="1" parent="1" source="mTBoAgmL4iOCy40pofWy-3" target="mTBoAgmL4iOCy40pofWy-4">
          <mxGeometry relative="1" as="geometry" />
        </mxCell>
        <mxCell id="mTBoAgmL4iOCy40pofWy-3" value="Microphone" style="shape=step;perimeter=stepPerimeter;whiteSpace=wrap;html=1;fixedSize=1;" vertex="1" parent="1">
          <mxGeometry x="-70" y="120" width="120" height="80" as="geometry" />
        </mxCell>
        <mxCell id="mTBoAgmL4iOCy40pofWy-4" value="" style="strokeWidth=2;html=1;shape=mxgraph.lean_mapping.buffer_or_safety_stock;" vertex="1" parent="1">
          <mxGeometry x="140" y="110" width="40" height="100" as="geometry" />
        </mxCell>
        <mxCell id="mTBoAgmL4iOCy40pofWy-11" value="Port Audio" style="swimlane;" vertex="1" parent="1">
          <mxGeometry x="80" y="40" width="340" height="430" as="geometry" />
        </mxCell>
        <mxCell id="mTBoAgmL4iOCy40pofWy-17" value="" style="shape=mxgraph.mockup.containers.marginRect;rectMarginTop=10;strokeColor=#666666;strokeWidth=1;dashed=0;rounded=1;arcSize=5;recursiveResize=0;" vertex="1" parent="mTBoAgmL4iOCy40pofWy-11">
          <mxGeometry x="160" y="30" width="155" height="370" as="geometry" />
        </mxCell>
        <mxCell id="mTBoAgmL4iOCy40pofWy-18" value="LVAudioSession" style="shape=rect;strokeColor=none;fillColor=#008cff;strokeWidth=1;dashed=0;rounded=1;arcSize=20;fontColor=#ffffff;fontSize=17;spacing=2;spacingTop=-2;align=left;autosize=1;spacingLeft=4;resizeWidth=0;resizeHeight=0;perimeter=none;" vertex="1" parent="mTBoAgmL4iOCy40pofWy-17">
          <mxGeometry x="5" width="150" height="30" as="geometry" />
        </mxCell>
        <mxCell id="mTBoAgmL4iOCy40pofWy-20" value="" style="verticalLabelPosition=bottom;verticalAlign=top;html=1;shape=mxgraph.basic.polygon;polyCoords=[[0.25,0],[0.75,0],[1,0.25],[1,0.75],[0.75,1],[0.25,1],[0,0.75],[0,0.25]];polyline=0;" vertex="1" parent="mTBoAgmL4iOCy40pofWy-17">
          <mxGeometry x="30" y="240" width="100" height="100" as="geometry" />
        </mxCell>
        <mxCell id="mTBoAgmL4iOCy40pofWy-19" value="" style="verticalLabelPosition=bottom;verticalAlign=top;html=1;shape=mxgraph.basic.polygon;polyCoords=[[0.25,0],[0.75,0],[1,0.25],[1,0.75],[0.75,1],[0.25,1],[0,0.75],[0,0.25]];polyline=0;" vertex="1" parent="mTBoAgmL4iOCy40pofWy-11">
          <mxGeometry x="190" y="70" width="100" height="100" as="geometry" />
        </mxCell>
        <mxCell id="mTBoAgmL4iOCy40pofWy-6" value="" style="strokeWidth=2;html=1;shape=mxgraph.lean_mapping.buffer_or_safety_stock;" vertex="1" parent="mTBoAgmL4iOCy40pofWy-11">
          <mxGeometry x="60" y="270" width="40" height="100" as="geometry" />
        </mxCell>
        <mxCell id="mTBoAgmL4iOCy40pofWy-43" style="edgeStyle=orthogonalEdgeStyle;rounded=0;orthogonalLoop=1;jettySize=auto;html=1;entryX=1;entryY=0.5;entryDx=0;entryDy=0;" edge="1" parent="mTBoAgmL4iOCy40pofWy-11" source="mTBoAgmL4iOCy40pofWy-20" target="mTBoAgmL4iOCy40pofWy-6">
          <mxGeometry relative="1" as="geometry" />
        </mxCell>
        <mxCell id="mTBoAgmL4iOCy40pofWy-32" style="edgeStyle=orthogonalEdgeStyle;rounded=0;orthogonalLoop=1;jettySize=auto;html=1;exitX=1;exitY=0.5;exitDx=0;exitDy=0;entryX=0;entryY=0.5;entryDx=0;entryDy=0;" edge="1" parent="1" source="mTBoAgmL4iOCy40pofWy-23" target="mTBoAgmL4iOCy40pofWy-30">
          <mxGeometry relative="1" as="geometry" />
        </mxCell>
        <mxCell id="mTBoAgmL4iOCy40pofWy-23" value="" style="strokeWidth=2;html=1;shape=mxgraph.lean_mapping.buffer_or_safety_stock;" vertex="1" parent="1">
          <mxGeometry x="560" y="110" width="40" height="100" as="geometry" />
        </mxCell>
        <mxCell id="mTBoAgmL4iOCy40pofWy-25" value="OPUS" style="swimlane;" vertex="1" parent="1">
          <mxGeometry x="500" y="40" width="460" height="430" as="geometry">
            <mxRectangle x="500" y="40" width="70" height="23" as="alternateBounds" />
          </mxGeometry>
        </mxCell>
        <mxCell id="mTBoAgmL4iOCy40pofWy-30" value="" style="strokeWidth=2;html=1;shape=mxgraph.lean_mapping.buffer_or_safety_stock;" vertex="1" parent="mTBoAgmL4iOCy40pofWy-25">
          <mxGeometry x="180" y="70" width="40" height="100" as="geometry" />
        </mxCell>
        <mxCell id="mTBoAgmL4iOCy40pofWy-31" value="" style="strokeWidth=2;html=1;shape=mxgraph.lean_mapping.buffer_or_safety_stock;" vertex="1" parent="mTBoAgmL4iOCy40pofWy-25">
          <mxGeometry x="180" y="270" width="40" height="100" as="geometry" />
        </mxCell>
        <mxCell id="mTBoAgmL4iOCy40pofWy-26" value="" style="shape=mxgraph.mockup.containers.marginRect;rectMarginTop=10;strokeColor=#666666;strokeWidth=1;dashed=0;rounded=1;arcSize=5;recursiveResize=0;" vertex="1" parent="mTBoAgmL4iOCy40pofWy-25">
          <mxGeometry x="280" y="25" width="155" height="380" as="geometry" />
        </mxCell>
        <mxCell id="mTBoAgmL4iOCy40pofWy-27" value="LVAudioSession" style="shape=rect;strokeColor=none;fillColor=#008cff;strokeWidth=1;dashed=0;rounded=1;arcSize=20;fontColor=#ffffff;fontSize=17;spacing=2;spacingTop=-2;align=left;autosize=1;spacingLeft=4;resizeWidth=0;resizeHeight=0;perimeter=none;" vertex="1" parent="mTBoAgmL4iOCy40pofWy-26">
          <mxGeometry x="5" width="150" height="30" as="geometry" />
        </mxCell>
        <mxCell id="mTBoAgmL4iOCy40pofWy-29" value="" style="verticalLabelPosition=bottom;verticalAlign=top;html=1;shape=mxgraph.basic.polygon;polyCoords=[[0.25,0],[0.75,0],[1,0.25],[1,0.75],[0.75,1],[0.25,1],[0,0.75],[0,0.25]];polyline=0;" vertex="1" parent="mTBoAgmL4iOCy40pofWy-26">
          <mxGeometry x="30" y="240" width="97.5" height="100" as="geometry" />
        </mxCell>
        <mxCell id="mTBoAgmL4iOCy40pofWy-36" style="edgeStyle=orthogonalEdgeStyle;rounded=0;orthogonalLoop=1;jettySize=auto;html=1;entryX=1;entryY=0.5;entryDx=0;entryDy=0;" edge="1" parent="mTBoAgmL4iOCy40pofWy-25" source="mTBoAgmL4iOCy40pofWy-29" target="mTBoAgmL4iOCy40pofWy-31">
          <mxGeometry relative="1" as="geometry" />
        </mxCell>
        <mxCell id="mTBoAgmL4iOCy40pofWy-28" value="" style="verticalLabelPosition=bottom;verticalAlign=top;html=1;shape=mxgraph.basic.polygon;polyCoords=[[0.25,0],[0.75,0],[1,0.25],[1,0.75],[0.75,1],[0.25,1],[0,0.75],[0,0.25]];polyline=0;" vertex="1" parent="mTBoAgmL4iOCy40pofWy-25">
          <mxGeometry x="307.5" y="70" width="100" height="100" as="geometry" />
        </mxCell>
        <mxCell id="mTBoAgmL4iOCy40pofWy-40" style="edgeStyle=orthogonalEdgeStyle;rounded=0;orthogonalLoop=1;jettySize=auto;html=1;" edge="1" parent="mTBoAgmL4iOCy40pofWy-25" source="mTBoAgmL4iOCy40pofWy-30" target="mTBoAgmL4iOCy40pofWy-28">
          <mxGeometry relative="1" as="geometry" />
        </mxCell>
        <mxCell id="mTBoAgmL4iOCy40pofWy-24" value="" style="strokeWidth=2;html=1;shape=mxgraph.lean_mapping.buffer_or_safety_stock;" vertex="1" parent="mTBoAgmL4iOCy40pofWy-25">
          <mxGeometry x="60" y="270" width="40" height="100" as="geometry" />
        </mxCell>
        <mxCell id="mTBoAgmL4iOCy40pofWy-33" style="edgeStyle=orthogonalEdgeStyle;rounded=0;orthogonalLoop=1;jettySize=auto;html=1;exitX=0;exitY=0.5;exitDx=0;exitDy=0;entryX=1;entryY=0.5;entryDx=0;entryDy=0;" edge="1" parent="mTBoAgmL4iOCy40pofWy-25" source="mTBoAgmL4iOCy40pofWy-31" target="mTBoAgmL4iOCy40pofWy-24">
          <mxGeometry relative="1" as="geometry" />
        </mxCell>
        <mxCell id="mTBoAgmL4iOCy40pofWy-34" style="edgeStyle=orthogonalEdgeStyle;rounded=0;orthogonalLoop=1;jettySize=auto;html=1;" edge="1" parent="1" source="mTBoAgmL4iOCy40pofWy-19">
          <mxGeometry relative="1" as="geometry">
            <mxPoint x="560" y="160" as="targetPoint" />
          </mxGeometry>
        </mxCell>
        <mxCell id="mTBoAgmL4iOCy40pofWy-41" style="edgeStyle=orthogonalEdgeStyle;rounded=0;orthogonalLoop=1;jettySize=auto;html=1;" edge="1" parent="1" source="mTBoAgmL4iOCy40pofWy-4" target="mTBoAgmL4iOCy40pofWy-19">
          <mxGeometry relative="1" as="geometry" />
        </mxCell>
        <mxCell id="mTBoAgmL4iOCy40pofWy-42" style="edgeStyle=orthogonalEdgeStyle;rounded=0;orthogonalLoop=1;jettySize=auto;html=1;entryX=1;entryY=0.5;entryDx=0;entryDy=0;" edge="1" parent="1" source="mTBoAgmL4iOCy40pofWy-6" target="mTBoAgmL4iOCy40pofWy-2">
          <mxGeometry relative="1" as="geometry" />
        </mxCell>
        <mxCell id="mTBoAgmL4iOCy40pofWy-44" style="edgeStyle=orthogonalEdgeStyle;rounded=0;orthogonalLoop=1;jettySize=auto;html=1;" edge="1" parent="1" source="mTBoAgmL4iOCy40pofWy-24" target="mTBoAgmL4iOCy40pofWy-20">
          <mxGeometry relative="1" as="geometry" />
        </mxCell>
      </root>
    </mxGraphModel>
  </diagram>
</mxfile>
